<svg width="26" height="26" viewBox="0 0 26 26" fill="none" xmlns="http://www.w3.org/2000/svg">
<path d="M2.09521 8.97712C2.09521 7.72398 2.60057 6.956 3.64635 6.37401L7.95127 3.97827C10.207 2.72292 11.3349 2.09524 12.5714 2.09524C13.8079 2.09524 14.9358 2.72292 17.1915 3.97827L21.4965 6.37401C22.5422 6.956 23.0476 7.72398 23.0476 8.97712C23.0476 9.31693 23.0476 9.48683 23.0105 9.62651C22.8155 10.3604 22.1506 10.4762 21.5083 10.4762H3.63446C2.99226 10.4762 2.32728 10.3604 2.13232 9.62651C2.09521 9.48683 2.09521 9.31693 2.09521 8.97712Z" stroke="#BB3EFF" stroke-width="1.17857"/>
<path d="M12.5672 7.33321H12.5766" stroke="#BB3EFF" stroke-width="1.57143" stroke-linecap="round" stroke-linejoin="round"/>
<path d="M4.19043 10.4762V19.381M8.38091 10.4762V19.381" stroke="#BB3EFF" stroke-width="1.17857"/>
<path d="M16.762 10.4761V19.3809M20.9524 10.4761V19.3809" stroke="#BB3EFF" stroke-width="1.17857"/>
<path d="M19.9047 19.381H5.23807C3.50232 19.381 2.09521 20.7881 2.09521 22.5238C2.09521 22.8131 2.32973 23.0476 2.61902 23.0476H22.5238C22.8131 23.0476 23.0476 22.8131 23.0476 22.5238C23.0476 20.7881 21.6405 19.381 19.9047 19.381Z" stroke="#BB3EFF" stroke-width="1.17857"/>
</svg>
